<?xml version="1.0" encoding="utf8" standalone="no"?>
<svg viewBox="0 0 319.8656 638.6864" xmlns="http://www.w3.org/2000/svg">
<defs>
<linearGradient gradientUnits="userSpaceOnUse" id="linearGradient3631" x1="-2874.5623" x2="-2656.0955" y1="569.81702" y2="600.46429">
<stop offset="0" stop-color="#fff"/>
<stop offset="1" stop-color="#fff" stop-opacity="0"/>
</linearGradient>
<radialGradient cx="-2628.6733" cy="677.82111" gradientTransform="matrix(1.56744,-.54434,.78525,2.26116,947.16811,-2182.3278)" gradientUnits="userSpaceOnUse" id="radialGradient3649" r="159.93282">
<stop offset="0" stop-color="#405789"/>
<stop offset=".51597" stop-color="#607ab4"/>
<stop offset="1" stop-color="#789ac9" stop-opacity="0"/>
</radialGradient>
</defs>
<title>Drop</title>
<g transform="translate(2851.2917,-255.80653)">
<path d="m-2692.9779,255.80653c-19.7513,90.86372-49.6938,179.50822-89.0857,263.73772-19.8543,42.45337-42.1919,84.02012-56.1329,128.7653s-19.0203,93.85191-3.8584,138.19825c12.9996,38.02187 40.9097,70.72513 76.421,89.5294s78.2514,23.50941 117,12.86986 73.096-36.514 94.0049-70.82827 28.1558-76.70641 19.8222-116.0155c-7.5883-35.79365-27.2342-67.87162-49.186-97.14427s-46.5723-56.61128-66.2989-87.42731c-48.996-76.53924-64.8193-173.54334-42.6862-261.68518" fill="#87bafb"/>
<path d="m-2692.9779,255.80653c-19.7513,90.86372-49.6938,179.50822-89.0857,263.73772-19.8543,42.45337-42.1919,84.02012-56.1329,128.7653s-19.0203,93.85191-3.8584,138.19825c12.9996,38.02187 40.9097,70.72513 76.421,89.5294s78.2514,23.50941 117,12.86986 73.096-36.514 94.0049-70.82827 28.1558-76.70641 19.8222-116.0155c-7.5883-35.79365-27.2342-67.87162-49.186-97.14427s-46.5723-56.61128-66.2989-87.42731c-48.996-76.53924-64.8193-173.54334-42.6862-261.68518" fill="url(#radialGradient3649)"/>
<path d="m-2716.4548,394.92383c-23.8374,73.035-50.9538,144.99967-81.2403,215.60463-9.6097,22.40252-19.5713,44.7594-26.1612,68.22838s-9.726,48.30968-5.4187,72.30274c2.3222,12.93549 6.8192,25.53205 13.7259,36.71318s16.2569,20.92114 27.4644,27.78489 24.2868,10.78711 37.4284,10.64651 26.2945-4.43009 36.6514-12.52049c10.5622-8.25078 17.9459-20.18318 21.8539-33.0036s4.4771-26.50199 2.9446-39.81688c-3.0651-26.6298-14.2332-51.52197-22.9608-76.86698-29.6969-86.23986-31.2217-181.93012-4.2876-269.07238" fill="url(#linearGradient3631)"/>
</g>
</svg>
